<svg xmlns="http://www.w3.org/2000/svg" fill="none" viewBox="0 0 24 24" height="24" width="24">
<path fill="#757575" d="M5.99994 5.11991C6.00342 4.89903 6.07158 4.68401 6.19597 4.50145C6.32036 4.31889 6.49553 4.17679 6.69982 4.09274C6.90412 4.00868 7.12857 3.98634 7.34542 4.0285C7.56227 4.07065 7.76201 4.17544 7.91994 4.32991L8.58994 4.99991L7.79994 5.78991L9.20994 7.20991L12.2099 4.20991L10.7899 2.78991L9.99994 3.58991L9.32994 2.91991C8.89294 2.48802 8.3385 2.19429 7.73572 2.07534C7.13294 1.95638 6.50847 2.01747 5.94017 2.25097C5.37186 2.48448 4.88485 2.88008 4.53983 3.38847C4.19481 3.89686 4.00705 4.49555 3.99994 5.10991V9.99991H1.99994V10.9999C2.00142 12.5764 2.41695 14.1247 3.20493 15.4901C3.99292 16.8555 5.12571 17.9899 6.48994 18.7799L5.10994 21.5499L6.89994 22.4399L8.32994 19.5899C9.19424 19.8601 10.0944 19.9983 10.9999 19.9999H12.9999C13.9089 19.9994 14.8124 19.8611 15.6799 19.5899L17.1099 22.4399L18.8999 21.5499L17.5099 18.7799C18.8742 17.9899 20.007 16.8555 20.7949 15.4901C21.5829 14.1247 21.9985 12.5764 21.9999 10.9999V9.99991H5.99994V5.11991ZM12.9999 17.9999H10.9999C9.31637 18.0003 7.68904 17.394 6.41625 16.292C5.14345 15.19 4.31045 13.6662 4.06994 11.9999H19.9299C19.6894 13.6662 18.8564 15.19 17.5836 16.292C16.3108 17.394 14.6835 18.0003 12.9999 17.9999Z"></path>
</svg>
