<svg xmlns="http://www.w3.org/2000/svg" fill="none" viewBox="0 0 24 24" height="24" width="24">
<path fill="#757575" d="M20.9999 13C20.3999 13 19.9999 12.6 19.9999 12V9.4L13.6999 15.7C13.2999 16.1 12.6999 16.1 12.2999 15.7L8.99994 12.4L3.69994 17.7C3.29994 18.1 2.69994 18.1 2.29994 17.7C1.89994 17.3 1.89994 16.7 2.29994 16.3L8.29994 10.3C8.69994 9.9 9.29994 9.9 9.69994 10.3L12.9999 13.6L18.5999 8H15.9999C15.3999 8 14.9999 7.6 14.9999 7C14.9999 6.4 15.3999 6 15.9999 6H20.9999C21.5999 6 21.9999 6.4 21.9999 7V12C21.9999 12.6 21.5999 13 20.9999 13Z"></path>
</svg>
