<svg xmlns="http://www.w3.org/2000/svg" fill="none" viewBox="0 0 24 24" height="24" width="24">
<path stroke-width="0.872727" stroke="#757575" fill="#757575" d="M15.3508 13.692H15.0819V9.40987C15.0821 9.36996 15.0744 9.3304 15.0591 9.29353C15.0438 9.25666 15.0213 9.22323 14.9928 9.19519C14.9644 9.16716 14.9307 9.14508 14.8936 9.13028C14.8566 9.11547 14.8169 9.10823 14.777 9.10897H14.4272V3.50349C14.5042 3.07553 14.4195 2.70692 14.1716 2.45921C13.567 1.85455 12.2339 2.26722 11.0821 3.41899C10.0488 4.45233 9.61309 5.62432 9.95971 6.29109V9.10897H9.60993C9.57002 9.10823 9.53037 9.11547 9.4933 9.13028C9.45623 9.14508 9.4225 9.16716 9.39408 9.19519C9.36567 9.22323 9.34315 9.25666 9.32785 9.29353C9.31255 9.3304 9.30478 9.36996 9.30499 9.40987V13.692H9.03613C8.99602 13.6912 8.95615 13.6983 8.91883 13.713C8.88151 13.7278 8.84749 13.7497 8.81875 13.7777C8.79001 13.8057 8.76713 13.8391 8.75142 13.8761C8.73572 13.913 8.72752 13.9526 8.72729 13.9928V20.3501C8.72772 20.7387 8.882 21.1113 9.15639 21.3864C9.43078 21.6615 9.80296 21.8168 10.1915 21.8182H14.1954C14.584 21.8168 14.9561 21.6615 15.2305 21.3864C15.5049 21.1113 15.6592 20.7387 15.6596 20.3501V13.9928C15.6594 13.9526 15.6512 13.913 15.6355 13.8761C15.6198 13.8391 15.5969 13.8057 15.5682 13.7777C15.5394 13.7497 15.5054 13.7278 15.4681 13.713C15.4308 13.6983 15.3909 13.6912 15.3508 13.692ZM11.5208 3.85473C12.2608 3.1147 12.9922 2.79677 13.4194 2.79677C13.559 2.79677 13.6659 2.8307 13.7303 2.89494C13.9912 3.15583 13.7522 4.12258 12.7705 5.10436C11.7888 6.08613 10.8221 6.32495 10.5611 6.0641C10.3002 5.80325 10.539 4.83646 11.5208 3.85473ZM10.5759 6.74724C10.6707 6.76618 10.767 6.77619 10.8637 6.77713C11.5295 6.77713 12.4147 6.33423 13.2091 5.54005C13.4365 5.31256 13.6184 5.07832 13.811 4.84424V9.10897H10.5759V6.74724ZM9.9212 9.72518H14.4657V13.692H9.9212V9.72518ZM15.0434 20.3501C15.0432 20.5753 14.9539 20.7913 14.795 20.9509C14.6361 21.1105 14.4206 21.2008 14.1954 21.202H10.1915C9.96633 21.2008 9.75078 21.1105 9.59191 20.9509C9.43304 20.7913 9.34374 20.5753 9.3435 20.3501V14.3082H15.0434V20.3501Z"></path>
<path fill="#757575" d="M11.4546 20.1817C11.5992 20.1817 11.738 20.1535 11.8403 20.1033C11.9426 20.0531 12 19.985 12 19.914V16.6313C12 16.5603 11.9426 16.4922 11.8403 16.4419C11.738 16.3917 11.5992 16.3635 11.4546 16.3635C11.3099 16.3635 11.1712 16.3917 11.0689 16.4419C10.9666 16.4922 10.9091 16.5603 10.9091 16.6313V19.914C10.9091 19.985 10.9666 20.0531 11.0689 20.1033C11.1712 20.1535 11.3099 20.1817 11.4546 20.1817Z"></path>
</svg>
