<svg xmlns="http://www.w3.org/2000/svg" fill="none" viewBox="0 0 16 17" height="17" width="16">
<path fill="#757575" d="M13.9218 9.05629C14.0296 9.24379 14.1375 9.43286 14.2468 9.62036C14.3171 9.74379 14.389 9.86567 14.4593 9.98911C14.5 10.061 14.5453 10.1313 14.5781 10.2079L14.5312 10.0954C14.5515 10.1485 14.5656 10.2016 14.5734 10.2579C14.5671 10.2157 14.5625 10.175 14.5562 10.1329C14.5625 10.1875 14.5625 10.2422 14.5546 10.2969C14.5609 10.2547 14.5656 10.2141 14.5718 10.1719C14.564 10.2266 14.55 10.2782 14.5296 10.3297L14.5765 10.2172C14.5718 10.2297 14.5218 10.3454 14.5078 10.3438C14.5031 10.3422 14.5781 10.2594 14.55 10.2907C14.5406 10.3 14.5312 10.3125 14.5218 10.3219C14.5046 10.3391 14.4296 10.4016 14.4984 10.3485C14.5656 10.2969 14.4921 10.35 14.4703 10.3625C14.4625 10.3672 14.4546 10.3719 14.4468 10.375C14.364 10.4235 14.2812 10.4704 14.2 10.5172C13.9671 10.6516 13.7328 10.786 13.5 10.9204C13.3968 10.9797 13.3015 11.0391 13.2093 11.1188C12.975 11.3204 12.8484 11.6344 12.8437 11.9407C12.8406 12.1375 12.8437 12.336 12.8437 12.5329V12.9938C12.8437 13.0813 12.8484 13.1704 12.8375 13.2563C12.8437 13.2141 12.8484 13.1735 12.8546 13.1313C12.8468 13.186 12.8328 13.2391 12.8125 13.2907L12.8593 13.1782C12.8437 13.2157 12.8234 13.25 12.8031 13.286C12.7671 13.3469 12.8718 13.211 12.8343 13.2469C12.8203 13.261 12.8078 13.2766 12.7937 13.2907C12.7812 13.3032 12.7687 13.3125 12.7562 13.325C12.7 13.3782 12.8546 13.2625 12.7875 13.3C12.7515 13.3204 12.7187 13.3407 12.6796 13.3563L12.7921 13.3094C12.7406 13.3297 12.6875 13.3438 12.6328 13.3516C12.675 13.3454 12.7156 13.3407 12.7578 13.3344C12.5593 13.3579 12.35 13.3407 12.15 13.3407C11.9187 13.3407 11.689 13.3391 11.4578 13.3407C11.0265 13.3422 10.6671 13.5735 10.4546 13.9422C10.3281 14.1625 10.2015 14.3829 10.0734 14.6032C10.0109 14.711 9.94996 14.8188 9.88746 14.925C9.8734 14.9485 9.8609 14.9735 9.84527 14.9969C9.79371 15.0782 9.91871 14.9157 9.85309 14.9875C9.83434 15.0079 9.81246 15.0266 9.79215 15.0454C9.76246 15.0735 9.84527 14.9985 9.84527 15.0032C9.84527 15.0063 9.80777 15.0282 9.80152 15.0313C9.77496 15.0469 9.74684 15.061 9.71871 15.0719L9.83121 15.025C9.77965 15.0454 9.72809 15.0594 9.6734 15.0672C9.71559 15.061 9.75621 15.0563 9.7984 15.05C9.74371 15.0563 9.68902 15.0563 9.63434 15.0516C9.67652 15.0579 9.71715 15.0625 9.75934 15.0688C9.70309 15.061 9.64996 15.0469 9.59684 15.0266L9.70934 15.0735C9.54059 15.0016 9.38121 14.8907 9.22184 14.8C9.01715 14.6829 8.81246 14.5641 8.60777 14.4469C8.4609 14.3625 8.30934 14.3047 8.14059 14.2813C7.89215 14.2485 7.6484 14.3032 7.42965 14.4266C7.24371 14.5329 7.05934 14.6391 6.87496 14.7454C6.68434 14.8547 6.49527 14.986 6.29371 15.0735L6.40621 15.0266C6.35309 15.0469 6.29996 15.061 6.24371 15.0688C6.2859 15.0625 6.32652 15.0579 6.36871 15.0516C6.31402 15.0579 6.25934 15.0579 6.20465 15.05C6.24684 15.0563 6.28746 15.061 6.32965 15.0672C6.27496 15.0594 6.2234 15.0454 6.17184 15.025L6.28434 15.0719C6.27184 15.0672 6.15621 15.0172 6.15777 15.0032C6.15934 14.9985 6.24215 15.0735 6.2109 15.0454C6.19996 15.036 6.18902 15.0266 6.17965 15.0172C6.16246 15 6.09996 14.925 6.15309 14.9938C6.20465 15.061 6.15152 14.9875 6.13902 14.9657C6.13434 14.9579 6.12965 14.95 6.12652 14.9422C6.07809 14.8594 6.03121 14.7766 5.98434 14.6954L5.58121 13.9969C5.52184 13.8938 5.46246 13.7985 5.38277 13.7063C5.18121 13.4719 4.86715 13.3454 4.5609 13.3407C4.36402 13.3375 4.16559 13.3407 3.96871 13.3407H3.50777C3.42027 13.3407 3.33121 13.3454 3.24527 13.3344C3.28746 13.3407 3.32809 13.3454 3.37027 13.3516C3.31559 13.3438 3.26246 13.3297 3.2109 13.3094L3.3234 13.3563C3.2859 13.3407 3.25152 13.3204 3.21559 13.3C3.15465 13.2641 3.29059 13.3688 3.25465 13.3313C3.24059 13.3172 3.22496 13.3047 3.2109 13.2907C3.1984 13.2782 3.18902 13.2657 3.17652 13.2532C3.1234 13.1969 3.23902 13.3516 3.20152 13.2844C3.18121 13.2485 3.1609 13.2157 3.14527 13.1766L3.19215 13.2891C3.17184 13.2375 3.15777 13.1844 3.14996 13.1297C3.15621 13.1719 3.1609 13.2125 3.16715 13.2547C3.14371 13.0563 3.1609 12.8469 3.1609 12.6469C3.1609 12.4157 3.16246 12.186 3.1609 11.9547C3.15934 11.5235 2.92809 11.1641 2.55934 10.9516C2.33902 10.825 2.11871 10.6985 1.8984 10.5704C1.79059 10.5079 1.68277 10.4469 1.57652 10.3844C1.55309 10.3704 1.52809 10.3579 1.50465 10.3422C1.4234 10.2907 1.5859 10.4157 1.51402 10.35C1.49371 10.3313 1.47496 10.3094 1.45621 10.2891C1.42809 10.2594 1.50309 10.3422 1.4984 10.3422C1.49527 10.3422 1.4734 10.3047 1.47027 10.2985C1.45465 10.2719 1.44059 10.2438 1.42965 10.2157L1.47652 10.3282C1.45621 10.2766 1.44215 10.225 1.43434 10.1704C1.44059 10.2125 1.44527 10.2532 1.45152 10.2954C1.44527 10.2407 1.44527 10.186 1.44996 10.1313C1.44371 10.1735 1.43902 10.2141 1.43277 10.2563C1.44059 10.2 1.45465 10.1469 1.47496 10.0938L1.42809 10.2063C1.49996 10.0375 1.6109 9.87817 1.70152 9.71879C1.81871 9.51411 1.93746 9.30942 2.05465 9.10473C2.13902 8.95786 2.19684 8.80629 2.22027 8.63754C2.25309 8.38911 2.1984 8.14536 2.07496 7.92661C1.96871 7.74067 1.86246 7.55629 1.75621 7.37192C1.64684 7.18129 1.51559 6.99223 1.42809 6.79067L1.47496 6.90317C1.45465 6.85004 1.44059 6.79692 1.43277 6.74067C1.43902 6.78286 1.44371 6.82348 1.44996 6.86567C1.44371 6.81098 1.44371 6.75629 1.45152 6.70161C1.44527 6.74379 1.44059 6.78442 1.43434 6.82661C1.44215 6.77192 1.45621 6.72036 1.47652 6.66879L1.42965 6.78129C1.43434 6.76879 1.48434 6.65317 1.4984 6.65473C1.50309 6.65629 1.42809 6.73911 1.45621 6.70786C1.46559 6.69692 1.47496 6.68598 1.48434 6.67661C1.50152 6.65942 1.57652 6.59692 1.50777 6.65004C1.44059 6.70161 1.51402 6.64848 1.5359 6.63598C1.54371 6.63129 1.55152 6.62661 1.55934 6.62348C1.64215 6.57504 1.72496 6.52817 1.80621 6.48129L2.50465 6.07817C2.60777 6.01879 2.70309 5.95942 2.79527 5.87973C3.02965 5.67817 3.15621 5.36411 3.1609 5.05786C3.16402 4.86098 3.1609 4.66254 3.1609 4.46567V4.00473C3.1609 3.91723 3.15621 3.82817 3.16715 3.74223C3.1609 3.78442 3.15621 3.82504 3.14996 3.86723C3.15777 3.81254 3.17184 3.75942 3.19215 3.70786L3.14527 3.82036C3.1609 3.78286 3.18121 3.74848 3.20152 3.71254C3.23746 3.65161 3.13277 3.78754 3.17027 3.75161C3.18434 3.73754 3.19684 3.72192 3.2109 3.70786C3.2234 3.69536 3.2359 3.68598 3.2484 3.67348C3.30465 3.62036 3.14996 3.73598 3.21715 3.69848C3.25309 3.67817 3.2859 3.65786 3.32496 3.64223L3.21246 3.68911C3.26402 3.66879 3.31715 3.65473 3.37184 3.64692C3.32965 3.65317 3.28902 3.65786 3.24684 3.66411C3.44527 3.64067 3.65465 3.65786 3.85465 3.65786C4.0859 3.65786 4.31559 3.65942 4.54684 3.65786C4.97809 3.65629 5.33746 3.42504 5.54996 3.05629C5.67652 2.83598 5.80309 2.61567 5.93121 2.39536C5.99371 2.28754 6.05465 2.17973 6.11715 2.07348C6.13121 2.05004 6.14371 2.02504 6.15934 2.00161C6.2109 1.92036 6.0859 2.08286 6.15152 2.01098C6.17027 1.99067 6.19215 1.97192 6.21246 1.95317C6.24215 1.92504 6.15934 2.00004 6.15934 1.99536C6.15934 1.99223 6.19684 1.97036 6.20309 1.96723C6.22965 1.95161 6.25777 1.93754 6.2859 1.92661L6.1734 1.97348C6.22496 1.95317 6.27652 1.93911 6.33121 1.93129C6.28902 1.93754 6.2484 1.94223 6.20621 1.94848C6.2609 1.94223 6.31559 1.94223 6.37027 1.94692C6.32809 1.94067 6.28746 1.93598 6.24527 1.92973C6.30152 1.93754 6.35465 1.95161 6.40777 1.97192L6.29527 1.92504C6.46402 1.99692 6.6234 2.10786 6.78277 2.19848C6.98746 2.31567 7.19215 2.43442 7.39684 2.55161C7.54371 2.63598 7.69527 2.69379 7.86402 2.71723C8.11246 2.75004 8.35621 2.69536 8.57496 2.57192C8.7609 2.46567 8.94527 2.35942 9.12965 2.25317C9.32027 2.14379 9.50934 2.01254 9.7109 1.92504L9.5984 1.97192C9.65152 1.95161 9.70465 1.93754 9.7609 1.92973C9.71871 1.93598 9.67809 1.94067 9.6359 1.94692C9.69059 1.94067 9.74527 1.94067 9.79996 1.94848C9.75777 1.94223 9.71715 1.93754 9.67496 1.93129C9.72965 1.93911 9.78121 1.95317 9.83277 1.97348L9.72027 1.92661C9.73277 1.93129 9.8484 1.98129 9.84684 1.99536C9.84527 2.00004 9.76246 1.92504 9.79371 1.95317C9.80465 1.96254 9.81559 1.97192 9.82496 1.98129C9.84215 1.99848 9.90465 2.07348 9.85152 2.00473C9.79996 1.93754 9.85309 2.01098 9.86559 2.03286C9.87027 2.04067 9.87496 2.04848 9.87809 2.05629C9.92652 2.13911 9.9734 2.22192 10.0203 2.30317L10.4234 3.00161C10.4828 3.10473 10.5421 3.20004 10.6218 3.29223C10.8234 3.52661 11.1375 3.65317 11.4437 3.65786C11.6406 3.66098 11.839 3.65786 12.0359 3.65786H12.4968C12.5843 3.65786 12.6734 3.65317 12.7593 3.66411C12.7171 3.65786 12.6765 3.65317 12.6343 3.64692C12.689 3.65473 12.7421 3.66879 12.7937 3.68911L12.6812 3.64223C12.7187 3.65786 12.7531 3.67817 12.789 3.69848C12.85 3.73442 12.714 3.62973 12.75 3.66723C12.764 3.68129 12.7796 3.69379 12.7937 3.70786C12.8062 3.72036 12.8156 3.73286 12.8281 3.74536C12.8812 3.80161 12.7656 3.64692 12.8031 3.71411C12.8234 3.75004 12.8437 3.78286 12.8593 3.82192L12.8125 3.70942C12.8328 3.76098 12.8468 3.81411 12.8546 3.86879C12.8484 3.82661 12.8437 3.78598 12.8375 3.74379C12.8609 3.94223 12.8437 4.15161 12.8437 4.35161C12.8437 4.58286 12.8421 4.81254 12.8437 5.04379C12.8453 5.47504 13.0765 5.83442 13.4453 6.04692C13.6656 6.17348 13.8859 6.30004 14.1062 6.42817C14.214 6.49067 14.3218 6.55161 14.4281 6.61411C14.4515 6.62817 14.4765 6.64067 14.5 6.65629C14.5812 6.70786 14.4187 6.58286 14.4906 6.64848C14.5109 6.66723 14.5296 6.68911 14.5484 6.70942C14.5765 6.73911 14.5015 6.65629 14.5062 6.65629C14.5093 6.65629 14.5312 6.69379 14.5343 6.70004C14.55 6.72661 14.564 6.75473 14.575 6.78286L14.5281 6.67036C14.5484 6.72192 14.5625 6.77348 14.5703 6.82817C14.564 6.78598 14.5593 6.74536 14.5531 6.70317C14.5593 6.75786 14.5593 6.81254 14.5546 6.86723C14.5609 6.82504 14.5656 6.78442 14.5718 6.74223C14.564 6.79848 14.55 6.85161 14.5296 6.90473L14.5765 6.79223C14.4937 6.98754 14.3656 7.17036 14.2609 7.35317C14.1484 7.54848 14.0328 7.74379 13.9234 7.94067C13.7281 8.29223 13.7281 8.70317 13.9218 9.05629C14.0406 9.27192 14.3546 9.35942 14.5625 9.22504C14.7812 9.08442 14.8562 8.81411 14.7312 8.58442C14.7187 8.56098 14.7078 8.53911 14.6968 8.51411L14.7437 8.62661C14.7218 8.57036 14.7062 8.51411 14.6984 8.45317C14.7046 8.49536 14.7093 8.53598 14.7156 8.57817C14.7109 8.52661 14.7109 8.47661 14.7156 8.42504C14.7093 8.46723 14.7046 8.50786 14.6984 8.55004C14.7062 8.48911 14.7218 8.43286 14.7437 8.37661L14.6968 8.48911C14.7875 8.28598 14.9187 8.09536 15.0281 7.90317C15.1343 7.71723 15.2437 7.53286 15.3484 7.34692C15.6468 6.81098 15.4656 6.13598 14.9343 5.82504C14.7234 5.70161 14.5109 5.58129 14.3 5.45942C14.1765 5.38911 14.0546 5.31723 13.9312 5.24692C13.9109 5.23442 13.889 5.22348 13.8687 5.21098C13.85 5.20004 13.775 5.14536 13.8406 5.19692C13.9093 5.25004 13.8218 5.17348 13.8062 5.15786C13.7812 5.13286 13.7734 5.09379 13.8375 5.20161C13.8296 5.18911 13.8203 5.17661 13.8125 5.16567C13.7921 5.13442 13.7765 5.10161 13.7625 5.06723L13.8093 5.17973C13.7906 5.13129 13.7765 5.08129 13.7687 5.02973C13.775 5.07192 13.7796 5.11254 13.7859 5.15473C13.7593 4.94692 13.7796 4.72661 13.7796 4.51879C13.7796 4.29379 13.7812 4.06723 13.7796 3.84223C13.7765 3.56254 13.6781 3.31723 13.5015 3.10317C13.3078 2.86879 13.0109 2.74692 12.714 2.72817C12.5093 2.71411 12.3 2.72661 12.0937 2.72661H11.6296C11.5375 2.72661 11.4421 2.73129 11.35 2.72036C11.3921 2.72661 11.4328 2.73129 11.475 2.73754C11.4234 2.72973 11.3734 2.71567 11.325 2.69692L11.4375 2.74379C11.4109 2.73286 11.3843 2.72036 11.3578 2.70473C11.339 2.69379 11.2625 2.63754 11.3328 2.69223C11.4 2.74379 11.3296 2.68598 11.314 2.67036C11.3125 2.66879 11.2843 2.64379 11.2843 2.63754C11.2859 2.65004 11.3562 2.73911 11.3109 2.66879C11.2968 2.64692 11.2843 2.62504 11.2718 2.60161C11.2156 2.50473 11.1609 2.40786 11.1046 2.31098C10.9703 2.07661 10.8343 1.84379 10.7 1.60942C10.6015 1.43911 10.4765 1.29692 10.3125 1.18598C10.0546 1.01411 9.70621 0.965669 9.40934 1.05317C9.16246 1.12661 8.93121 1.29067 8.70934 1.41879C8.56246 1.50317 8.41715 1.58754 8.27027 1.67192C8.1859 1.72036 8.10309 1.77348 8.01402 1.81411L8.12652 1.76723C8.07027 1.78911 8.01402 1.80473 7.95309 1.81254C7.99527 1.80629 8.0359 1.80161 8.07809 1.79536C8.02652 1.80004 7.97652 1.80004 7.92496 1.79536C7.96715 1.80161 8.00777 1.80629 8.04996 1.81254C7.98902 1.80473 7.93277 1.78911 7.87652 1.76723L7.98902 1.81411C7.7859 1.72348 7.59527 1.59223 7.40309 1.48129C7.21559 1.36567 7.03121 1.25629 6.84371 1.15161C6.30777 0.853169 5.63121 1.03442 5.32184 1.56567C5.1984 1.77661 5.07809 1.98911 4.95621 2.20004C4.8859 2.32348 4.81402 2.44536 4.74371 2.56879C4.73121 2.58911 4.72027 2.61098 4.70777 2.63129C4.69684 2.65004 4.64215 2.72504 4.69371 2.65942C4.74684 2.59067 4.67027 2.67817 4.65465 2.69379C4.62965 2.71879 4.59059 2.72661 4.6984 2.66254C4.6859 2.67036 4.6734 2.67973 4.66246 2.68754C4.63121 2.70786 4.5984 2.72348 4.56402 2.73754L4.67652 2.69067C4.62809 2.70942 4.57809 2.72348 4.52652 2.73129C4.56871 2.72504 4.60934 2.72036 4.65152 2.71411C4.44371 2.74067 4.2234 2.72036 4.01559 2.72036C3.79059 2.72036 3.56402 2.71879 3.33902 2.72036C3.05934 2.72348 2.81402 2.82192 2.59996 2.99848C2.36559 3.19223 2.24371 3.48911 2.22496 3.78598C2.2109 3.99067 2.2234 4.20004 2.2234 4.40629V4.87036C2.2234 4.96254 2.22809 5.05786 2.21715 5.15004C2.2234 5.10786 2.22809 5.06723 2.23434 5.02504C2.22652 5.07661 2.21246 5.12661 2.19371 5.17504L2.24059 5.06254C2.22965 5.08911 2.21715 5.11567 2.20152 5.14223C2.19059 5.16098 2.13434 5.23754 2.18902 5.16723C2.24059 5.10004 2.18277 5.17036 2.16715 5.18598C2.16559 5.18754 2.14059 5.21567 2.13434 5.21567C2.14684 5.21411 2.2359 5.14379 2.16559 5.18911C2.14371 5.20317 2.12184 5.21567 2.0984 5.22817C2.00152 5.28442 1.90465 5.33911 1.80777 5.39536C1.5734 5.52973 1.34059 5.66567 1.10621 5.80004C0.935899 5.89848 0.793711 6.02348 0.682774 6.18754C0.510899 6.44536 0.462461 6.79379 0.549961 7.09067C0.623399 7.33754 0.787461 7.56879 0.915586 7.79067C0.999961 7.93754 1.08434 8.08286 1.16871 8.22973C1.21715 8.31411 1.27027 8.39692 1.3109 8.48598L1.26402 8.37348C1.2859 8.42973 1.30152 8.48598 1.30934 8.54692C1.30309 8.50473 1.2984 8.46411 1.29215 8.42192C1.29684 8.47348 1.29684 8.52348 1.29215 8.57504C1.2984 8.53286 1.30309 8.49223 1.30934 8.45004C1.30152 8.51098 1.2859 8.56723 1.26402 8.62348L1.3109 8.51098C1.22027 8.71411 1.08902 8.90473 0.978086 9.09692C0.865586 9.28442 0.756211 9.46879 0.651524 9.65629C0.353086 10.1922 0.534336 10.8688 1.06559 11.1782C1.27652 11.3016 1.48902 11.4219 1.69996 11.5438C1.8234 11.6141 1.94527 11.686 2.06871 11.7563C2.08902 11.7688 2.1109 11.7797 2.13121 11.7922C2.14996 11.8032 2.22496 11.8579 2.15934 11.8063C2.09059 11.7532 2.17809 11.8297 2.19371 11.8454C2.21871 11.8704 2.22652 11.9094 2.16246 11.8016C2.17027 11.8141 2.17965 11.8266 2.18746 11.8375C2.20777 11.8688 2.2234 11.9016 2.23746 11.936L2.19059 11.8235C2.20934 11.8719 2.2234 11.9219 2.23121 11.9735C2.22496 11.9313 2.22027 11.8907 2.21402 11.8485C2.24059 12.0563 2.22027 12.2766 2.22027 12.4844C2.22027 12.7094 2.21871 12.936 2.22027 13.161C2.2234 13.4407 2.32184 13.686 2.4984 13.9C2.69215 14.1344 2.98902 14.2563 3.2859 14.275C3.49059 14.2891 3.69996 14.2766 3.90621 14.2766H4.37027C4.46246 14.2766 4.55777 14.2719 4.64996 14.2829C4.60777 14.2766 4.56715 14.2719 4.52496 14.2657C4.57652 14.2735 4.62652 14.2875 4.67496 14.3063L4.56246 14.2594C4.58902 14.2704 4.61559 14.2829 4.64215 14.2985C4.6609 14.3094 4.73746 14.3657 4.66715 14.311C4.59996 14.2594 4.67027 14.3172 4.6859 14.3329C4.68746 14.3344 4.71559 14.3594 4.71559 14.3657C4.71402 14.3532 4.64371 14.2641 4.68902 14.3344C4.70309 14.3563 4.71559 14.3782 4.72809 14.4016C4.78434 14.4985 4.83902 14.5954 4.89527 14.6922C5.02965 14.9266 5.16559 15.1594 5.29996 15.3938C5.3984 15.5641 5.5234 15.7063 5.68746 15.8172C5.94527 15.9891 6.29371 16.0375 6.59059 15.95C6.83746 15.8766 7.06871 15.7125 7.29059 15.5844C7.43746 15.5 7.58277 15.4157 7.72965 15.3313C7.81402 15.2829 7.89684 15.2297 7.9859 15.1891L7.8734 15.236C7.92965 15.2141 7.9859 15.1985 8.04684 15.1907C8.00465 15.1969 7.96402 15.2016 7.92184 15.2079C7.9734 15.2032 8.0234 15.2032 8.07496 15.2079C8.03277 15.2016 7.99215 15.1969 7.94996 15.1907C8.0109 15.1985 8.06715 15.2141 8.1234 15.236L8.0109 15.1891C8.21402 15.2797 8.40465 15.411 8.59684 15.5219C8.78277 15.6282 8.96715 15.7391 9.15309 15.8422C9.68902 16.1407 10.3656 15.9594 10.675 15.4282C10.7984 15.2172 10.9187 15.0047 11.0406 14.7938C11.1109 14.6704 11.1828 14.5485 11.2531 14.425C11.2656 14.4047 11.2765 14.3829 11.289 14.3625C11.3 14.3438 11.3546 14.2688 11.3031 14.3344C11.25 14.4032 11.3265 14.3157 11.3421 14.3C11.3671 14.275 11.4062 14.2672 11.2984 14.3313C11.3109 14.3235 11.3234 14.3141 11.3343 14.3063C11.3656 14.286 11.3984 14.2704 11.4328 14.2563L11.3203 14.3032C11.3687 14.2844 11.4187 14.2704 11.4703 14.2625C11.4281 14.2688 11.3875 14.2735 11.3453 14.2797C11.5531 14.2532 11.7734 14.2735 11.9812 14.2735C12.2062 14.2735 12.4328 14.275 12.6578 14.2735C12.9375 14.2704 13.1828 14.1719 13.3968 13.9954C13.6312 13.8016 13.7531 13.5047 13.7718 13.2079C13.7859 13.0032 13.7734 12.7938 13.7734 12.5875V12.1235C13.7734 12.0313 13.7687 11.936 13.7796 11.8438C13.7734 11.886 13.7687 11.9266 13.7625 11.9688C13.7703 11.9172 13.7843 11.8672 13.8031 11.8188L13.7562 11.9313C13.7671 11.9047 13.7796 11.8782 13.7953 11.8516C13.8062 11.8344 13.8625 11.7563 13.8078 11.8266C13.7562 11.8938 13.814 11.8235 13.8296 11.8079C13.8359 11.8032 13.8625 11.7829 13.8625 11.7782C13.8609 11.786 13.7671 11.8438 13.8218 11.811C13.8468 11.7954 13.8718 11.7797 13.8984 11.7657C13.9937 11.711 14.0875 11.6563 14.1828 11.6016C14.4171 11.4672 14.6515 11.3313 14.8843 11.1969C15.0484 11.1016 15.1828 10.9844 15.2953 10.8313C15.4812 10.5782 15.5281 10.2344 15.4546 9.93286C15.3953 9.68598 15.2218 9.44692 15.0968 9.22973L14.7218 8.57817C14.6 8.36567 14.2921 8.27348 14.0812 8.40942C13.875 8.55317 13.7906 8.82817 13.9218 9.05629Z"></path>
<path fill="#757575" d="M10.1657 5.67191L9.66884 6.16878L8.47666 7.36097L7.03447 8.80316L5.78759 10.05C5.58603 10.2516 5.37822 10.4516 5.17978 10.6578L5.17041 10.6672C4.99697 10.8407 4.98447 11.1594 5.17041 11.3297C5.35791 11.5016 5.64853 11.5157 5.83291 11.3297L6.32978 10.8328L7.52197 9.64066L8.96416 8.19847L10.211 6.95159C10.4126 6.75003 10.6204 6.55003 10.8188 6.34378L10.8282 6.33441C11.0017 6.16097 11.0142 5.84222 10.8282 5.67191C10.6423 5.50003 10.3517 5.48597 10.1657 5.67191ZM6.47978 6.97972C6.45791 7.00159 6.43603 7.02034 6.41259 7.04066C6.35322 7.09378 6.51728 6.96878 6.41884 7.03441C6.37041 7.06722 6.31884 7.09378 6.26572 7.11722L6.37822 7.07034C6.29228 7.10628 6.20322 7.13128 6.11103 7.14378C6.15322 7.13753 6.19384 7.13284 6.23603 7.12659C6.15166 7.13597 6.06728 7.13597 5.98134 7.12659C6.02353 7.13284 6.06416 7.13753 6.10634 7.14378C6.01416 7.13128 5.92509 7.10628 5.83916 7.07034L5.95166 7.11722C5.89853 7.09378 5.84697 7.06722 5.79853 7.03441C5.70009 6.96878 5.86259 7.09378 5.80478 7.04066C5.78291 7.02034 5.75947 7.00159 5.73759 6.97972C5.71572 6.95784 5.69697 6.93597 5.67666 6.91253C5.62353 6.85316 5.74853 7.01722 5.68291 6.91878C5.65009 6.87034 5.62353 6.81878 5.60009 6.76566L5.64697 6.87816C5.61103 6.79222 5.58603 6.70316 5.57353 6.61097C5.57978 6.65316 5.58447 6.69378 5.59072 6.73597C5.58134 6.65159 5.58134 6.56722 5.59072 6.48128C5.58447 6.52347 5.57978 6.56409 5.57353 6.60628C5.58603 6.51409 5.61103 6.42503 5.64697 6.33909L5.60009 6.45159C5.62353 6.39847 5.65009 6.34691 5.68291 6.29847C5.74853 6.20003 5.62353 6.36253 5.67666 6.30472C5.69697 6.28284 5.71572 6.25941 5.73759 6.23753C5.75947 6.21566 5.78134 6.19691 5.80478 6.17659C5.86416 6.12347 5.70009 6.24847 5.79853 6.18284C5.84697 6.15003 5.89853 6.12347 5.95166 6.10003L5.83916 6.14691C5.92509 6.11097 6.01416 6.08597 6.10634 6.07347C6.06416 6.07972 6.02353 6.08441 5.98134 6.09066C6.06572 6.08128 6.15009 6.08128 6.23603 6.09066C6.19384 6.08441 6.15322 6.07972 6.11103 6.07347C6.20322 6.08597 6.29228 6.11097 6.37822 6.14691L6.26572 6.10003C6.31884 6.12347 6.37041 6.15003 6.41884 6.18284C6.51728 6.24847 6.35478 6.12347 6.41259 6.17659C6.43447 6.19691 6.45791 6.21566 6.47978 6.23753C6.50166 6.25941 6.52041 6.28128 6.54072 6.30472C6.59384 6.36409 6.46884 6.20003 6.53447 6.29847C6.56728 6.34691 6.59384 6.39847 6.61728 6.45159L6.57041 6.33909C6.60634 6.42503 6.63134 6.51409 6.64384 6.60628C6.63759 6.56409 6.63291 6.52347 6.62666 6.48128C6.63603 6.56566 6.63603 6.65003 6.62666 6.73597C6.63291 6.69378 6.63759 6.65316 6.64384 6.61097C6.63134 6.70316 6.60634 6.79222 6.57041 6.87816L6.61728 6.76566C6.59384 6.81878 6.56728 6.87034 6.53447 6.91878C6.46884 7.01722 6.59384 6.85472 6.54072 6.91253C6.52041 6.93597 6.50166 6.95784 6.47978 6.97972C6.30791 7.15472 6.29228 7.47034 6.47978 7.64222C6.66572 7.81253 6.95947 7.82972 7.14228 7.64222C7.34072 7.43909 7.49697 7.17191 7.54228 6.88909C7.59541 6.56253 7.55791 6.25628 7.41728 5.95472C7.17353 5.43597 6.57197 5.08909 6.00009 5.14691C5.67197 5.17972 5.39072 5.29691 5.13759 5.50941C4.91884 5.69222 4.75634 5.96409 4.68759 6.23909C4.53447 6.85472 4.79072 7.48441 5.31259 7.83597C5.87978 8.21878 6.66259 8.10941 7.14228 7.64066C7.31728 7.46878 7.32666 7.14691 7.14228 6.97816C6.95322 6.80628 6.66728 6.79691 6.47978 6.97972ZM10.2688 10.7641C10.247 10.786 10.2251 10.8047 10.2017 10.825C10.1423 10.8782 10.3063 10.7532 10.2079 10.8188C10.1595 10.8516 10.1079 10.8782 10.0548 10.9016L10.1673 10.8547C10.0813 10.8907 9.99228 10.9157 9.90009 10.9282C9.94228 10.9219 9.9829 10.9172 10.0251 10.911C9.94072 10.9203 9.85634 10.9203 9.7704 10.911C9.81259 10.9172 9.85322 10.9219 9.8954 10.9282C9.80322 10.9157 9.71416 10.8907 9.62822 10.8547L9.74072 10.9016C9.68759 10.8782 9.63603 10.8516 9.58759 10.8188C9.48915 10.7532 9.65166 10.8782 9.59384 10.825C9.57197 10.8047 9.54853 10.786 9.52666 10.7641C9.50478 10.7422 9.48603 10.7203 9.46572 10.6969C9.41259 10.6375 9.53759 10.8016 9.47197 10.7032C9.43916 10.6547 9.41259 10.6032 9.38916 10.55L9.43603 10.6625C9.40009 10.5766 9.37509 10.4875 9.36259 10.3953C9.36884 10.4375 9.37353 10.4782 9.37978 10.5203C9.37041 10.436 9.37041 10.3516 9.37978 10.2657C9.37353 10.3078 9.36884 10.3485 9.36259 10.3907C9.37509 10.2985 9.40009 10.2094 9.43603 10.1235L9.38916 10.236C9.41259 10.1828 9.43916 10.1313 9.47197 10.0828C9.53759 9.98441 9.41259 10.1469 9.46572 10.0891C9.48603 10.0672 9.50478 10.0438 9.52666 10.0219C9.54853 10 9.57041 9.98128 9.59384 9.96097C9.65322 9.90784 9.48915 10.0328 9.58759 9.96722C9.63603 9.93441 9.68759 9.90784 9.74072 9.88441L9.62822 9.93128C9.71416 9.89534 9.80322 9.87034 9.8954 9.85784C9.85322 9.86409 9.81259 9.86878 9.7704 9.87503C9.85478 9.86566 9.93915 9.86566 10.0251 9.87503C9.9829 9.86878 9.94228 9.86409 9.90009 9.85784C9.99228 9.87034 10.0813 9.89534 10.1673 9.93128L10.0548 9.88441C10.1079 9.90784 10.1595 9.93441 10.2079 9.96722C10.3063 10.0328 10.1438 9.90784 10.2017 9.96097C10.2235 9.98128 10.247 10 10.2688 10.0219C10.2907 10.0438 10.3095 10.0657 10.3298 10.0891C10.3829 10.1485 10.2579 9.98441 10.3235 10.0828C10.3563 10.1313 10.3829 10.1828 10.4063 10.236L10.3595 10.1235C10.3954 10.2094 10.4204 10.2985 10.4329 10.3907C10.4267 10.3485 10.422 10.3078 10.4157 10.2657C10.4251 10.35 10.4251 10.4344 10.4157 10.5203C10.422 10.4782 10.4267 10.4375 10.4329 10.3953C10.4204 10.4875 10.3954 10.5766 10.3595 10.6625L10.4063 10.55C10.3829 10.6032 10.3563 10.6547 10.3235 10.7032C10.2579 10.8016 10.3829 10.6391 10.3298 10.6969C10.3095 10.7203 10.2892 10.7422 10.2688 10.7641C10.097 10.9391 10.0813 11.2547 10.2688 11.4266C10.4548 11.5969 10.7485 11.6141 10.9313 11.4266C11.1298 11.2235 11.286 10.9563 11.3313 10.6735C11.3845 10.3469 11.347 10.0407 11.2063 9.73909C10.9626 9.22034 10.361 8.87347 9.78916 8.93128C9.46103 8.96409 9.17978 9.08128 8.92665 9.29378C8.7079 9.47659 8.54541 9.74847 8.47666 10.0235C8.32353 10.6391 8.57978 11.2688 9.10166 11.6203C9.66884 12.0032 10.4517 11.8938 10.9313 11.425C11.1063 11.2532 11.1157 10.9313 10.9313 10.7625C10.7423 10.5907 10.4548 10.5813 10.2688 10.7641Z"></path>
</svg>
