<svg xmlns="http://www.w3.org/2000/svg" fill="none" viewBox="0 0 24 24" height="24" width="24">
<g clip-path="url(#clip0_12366_4915)">
<path fill="#757575" d="M20.8827 12.8344C21.0445 13.1156 21.2062 13.3992 21.3702 13.6805C21.4757 13.8656 21.5835 14.0484 21.689 14.2336C21.7499 14.3414 21.8179 14.4469 21.8671 14.5617L21.7968 14.393C21.8273 14.4727 21.8484 14.5523 21.8601 14.6367C21.8507 14.5734 21.8437 14.5125 21.8343 14.4492C21.8437 14.5313 21.8437 14.6133 21.832 14.6953C21.8413 14.632 21.8484 14.5711 21.8577 14.5078C21.846 14.5898 21.8249 14.6672 21.7945 14.7445L21.8648 14.5758C21.8577 14.5945 21.7827 14.768 21.7616 14.7656C21.7546 14.7633 21.8671 14.6391 21.8249 14.6859C21.8109 14.7 21.7968 14.7188 21.7827 14.7328C21.757 14.7586 21.6445 14.8523 21.7476 14.7727C21.8484 14.6953 21.7382 14.775 21.7054 14.7938C21.6937 14.8008 21.682 14.8078 21.6702 14.8125C21.546 14.8852 21.4218 14.9555 21.2999 15.0258C20.9507 15.2273 20.5991 15.4289 20.2499 15.6305C20.0952 15.7195 19.9523 15.8086 19.814 15.9281C19.4624 16.2305 19.2726 16.7016 19.2655 17.1609C19.2609 17.4563 19.2655 17.7539 19.2655 18.0492V18.7406C19.2655 18.8719 19.2726 19.0055 19.2562 19.1344C19.2655 19.0711 19.2726 19.0102 19.282 18.9469C19.2702 19.0289 19.2491 19.1086 19.2187 19.1859L19.289 19.0172C19.2655 19.0734 19.2351 19.125 19.2046 19.1789C19.1507 19.2703 19.3077 19.0664 19.2515 19.1203C19.2304 19.1414 19.2116 19.1648 19.1905 19.1859C19.1718 19.2047 19.153 19.2188 19.1343 19.2375C19.0499 19.3172 19.282 19.1438 19.1812 19.2C19.1273 19.2305 19.078 19.2609 19.0195 19.2844L19.1882 19.2141C19.1109 19.2445 19.0312 19.2656 18.9491 19.2773C19.0124 19.268 19.0734 19.2609 19.1366 19.2516C18.839 19.2867 18.5249 19.2609 18.2249 19.2609C17.878 19.2609 17.5335 19.2586 17.1866 19.2609C16.5398 19.2633 16.0007 19.6102 15.682 20.1633C15.4921 20.4938 15.3023 20.8242 15.1101 21.1547C15.0163 21.3164 14.9249 21.4781 14.8312 21.6375C14.8101 21.6727 14.7913 21.7102 14.7679 21.7453C14.6905 21.8672 14.878 21.6234 14.7796 21.7313C14.7515 21.7617 14.7187 21.7898 14.6882 21.818C14.6437 21.8602 14.7679 21.7477 14.7679 21.7547C14.7679 21.7594 14.7116 21.7922 14.7023 21.7969C14.6624 21.8203 14.6202 21.8414 14.578 21.8578L14.7468 21.7875C14.6695 21.818 14.5921 21.8391 14.5101 21.8508C14.5734 21.8414 14.6343 21.8344 14.6976 21.825C14.6155 21.8344 14.5335 21.8344 14.4515 21.8273C14.5148 21.8367 14.5757 21.8438 14.639 21.8531C14.5546 21.8414 14.4749 21.8203 14.3952 21.7898L14.564 21.8602C14.3109 21.7523 14.0718 21.5859 13.8327 21.45C13.5257 21.2742 13.2187 21.0961 12.9116 20.9203C12.6913 20.7938 12.464 20.707 12.2109 20.6719C11.8382 20.6227 11.4726 20.7047 11.1445 20.8898C10.8656 21.0492 10.589 21.2086 10.3124 21.368C10.0265 21.532 9.74289 21.7289 9.44055 21.8602L9.6093 21.7898C9.52961 21.8203 9.44993 21.8414 9.36555 21.8531C9.42883 21.8438 9.48977 21.8367 9.55305 21.8273C9.47102 21.8367 9.38899 21.8367 9.30696 21.825C9.37024 21.8344 9.43118 21.8414 9.49446 21.8508C9.41243 21.8391 9.33508 21.818 9.25774 21.7875L9.42649 21.8578C9.40774 21.8508 9.2343 21.7758 9.23664 21.7547C9.23899 21.7477 9.36321 21.8602 9.31633 21.818C9.29993 21.8039 9.28352 21.7898 9.26946 21.7758C9.24368 21.75 9.14993 21.6375 9.22961 21.7406C9.30696 21.8414 9.22727 21.7313 9.20852 21.6984C9.20149 21.6867 9.19446 21.675 9.18977 21.6633C9.11711 21.5391 9.0468 21.4148 8.97649 21.293L8.3718 20.2453C8.28274 20.0906 8.19368 19.9477 8.07414 19.8094C7.7718 19.4578 7.30071 19.268 6.84133 19.2609C6.54602 19.2563 6.24836 19.2609 5.95305 19.2609H5.26165C5.1304 19.2609 4.9968 19.268 4.8679 19.2516C4.93118 19.2609 4.99211 19.268 5.0554 19.2773C4.97336 19.2656 4.89368 19.2445 4.81633 19.2141L4.98508 19.2844C4.92883 19.2609 4.87727 19.2305 4.82336 19.2C4.73196 19.1461 4.93586 19.3031 4.88196 19.2469C4.86086 19.2258 4.83743 19.207 4.81633 19.1859C4.79758 19.1672 4.78352 19.1484 4.76477 19.1297C4.68508 19.0453 4.85852 19.2773 4.80227 19.1766C4.7718 19.1227 4.74133 19.0734 4.7179 19.0148L4.78821 19.1836C4.75774 19.1063 4.73665 19.0266 4.72493 18.9445C4.7343 19.0078 4.74133 19.0688 4.75071 19.132C4.71555 18.8344 4.74133 18.5203 4.74133 18.2203C4.74133 17.8734 4.74368 17.5289 4.74133 17.182C4.73899 16.5352 4.39211 15.9961 3.83899 15.6773C3.50852 15.4875 3.17805 15.2977 2.84758 15.1055C2.68586 15.0117 2.52415 14.9203 2.36477 14.8266C2.32961 14.8055 2.29211 14.7867 2.25696 14.7633C2.13508 14.6859 2.37883 14.8734 2.27102 14.775C2.24055 14.7469 2.21243 14.7141 2.1843 14.6836C2.14211 14.6391 2.25461 14.7633 2.24758 14.7633C2.2429 14.7633 2.21008 14.707 2.2054 14.6977C2.18196 14.6578 2.16086 14.6156 2.14446 14.5734L2.21477 14.7422C2.1843 14.6648 2.16321 14.5875 2.15149 14.5055C2.16086 14.5688 2.1679 14.6297 2.17727 14.693C2.1679 14.6109 2.1679 14.5289 2.17493 14.4469C2.16555 14.5102 2.15852 14.5711 2.14915 14.6344C2.16086 14.55 2.18196 14.4703 2.21243 14.3906L2.14211 14.5594C2.24993 14.3063 2.41633 14.0672 2.55227 13.8281C2.72805 13.5211 2.90618 13.2141 3.08196 12.907C3.20852 12.6867 3.29524 12.4594 3.3304 12.2063C3.37961 11.8336 3.29758 11.468 3.11243 11.1398C2.95305 10.8609 2.79368 10.5844 2.6343 10.3078C2.47024 10.0219 2.27336 9.73829 2.14211 9.43594L2.21243 9.60469C2.18196 9.525 2.16086 9.44532 2.14915 9.36094C2.15852 9.42422 2.16555 9.48516 2.17493 9.54844C2.16555 9.46641 2.16555 9.38438 2.17727 9.30235C2.1679 9.36563 2.16086 9.42657 2.15149 9.48985C2.16321 9.40782 2.1843 9.33047 2.21477 9.25313L2.14446 9.42188C2.15149 9.40313 2.22649 9.22969 2.24758 9.23204C2.25461 9.23438 2.14211 9.3586 2.1843 9.31172C2.19836 9.29532 2.21243 9.27891 2.22649 9.26485C2.25227 9.23907 2.36477 9.14532 2.26165 9.225C2.16086 9.30235 2.27102 9.22266 2.30383 9.20391C2.31555 9.19688 2.32727 9.18985 2.33899 9.18516C2.46321 9.1125 2.58743 9.04219 2.7093 8.97188L3.75696 8.36719C3.91165 8.27813 4.05461 8.18907 4.1929 8.06954C4.54446 7.76719 4.7343 7.2961 4.74133 6.83672C4.74602 6.54141 4.74133 6.24375 4.74133 5.94844V5.25704C4.74133 5.12579 4.7343 4.99219 4.75071 4.86329C4.74133 4.92657 4.7343 4.9875 4.72493 5.05079C4.73665 4.96875 4.75774 4.88907 4.78821 4.81172L4.7179 4.98047C4.74133 4.92422 4.7718 4.87266 4.80227 4.81875C4.85618 4.72735 4.69915 4.93125 4.7554 4.87735C4.77649 4.85625 4.79524 4.83282 4.81633 4.81172C4.83508 4.79297 4.85383 4.77891 4.87258 4.76016C4.95696 4.68047 4.72493 4.85391 4.82571 4.79766C4.87961 4.76719 4.92883 4.73672 4.98743 4.71329L4.81868 4.7836C4.89602 4.75313 4.97571 4.73204 5.05774 4.72032C4.99446 4.72969 4.93352 4.73672 4.87024 4.7461C5.1679 4.71094 5.48196 4.73672 5.78196 4.73672C6.12883 4.73672 6.47336 4.73907 6.82024 4.73672C7.46711 4.73438 8.00618 4.3875 8.32493 3.83438C8.51477 3.50391 8.70461 3.17344 8.8968 2.84297C8.99055 2.68125 9.08196 2.51954 9.17571 2.36016C9.1968 2.325 9.21555 2.2875 9.23899 2.25235C9.31633 2.13047 9.12883 2.37422 9.22727 2.26641C9.25539 2.23594 9.28821 2.20782 9.31868 2.17969C9.36321 2.1375 9.23899 2.25 9.23899 2.24297C9.23899 2.23829 9.29524 2.20547 9.30461 2.20079C9.34446 2.17735 9.38664 2.15625 9.42883 2.13985L9.26008 2.21016C9.33743 2.17969 9.41477 2.1586 9.4968 2.14688C9.43352 2.15625 9.37258 2.16329 9.3093 2.17266C9.39133 2.16329 9.47336 2.16329 9.5554 2.17032C9.49211 2.16094 9.43118 2.15391 9.3679 2.14454C9.45227 2.15625 9.53196 2.17735 9.61164 2.20782L9.44289 2.1375C9.69602 2.24532 9.93508 2.41172 10.1741 2.54766C10.4812 2.72344 10.7882 2.90157 11.0952 3.07735C11.3156 3.20391 11.5429 3.29063 11.796 3.32579C12.1687 3.375 12.5343 3.29297 12.8624 3.10782C13.1413 2.94844 13.4179 2.78907 13.6945 2.62969C13.9804 2.46563 14.264 2.26875 14.5663 2.1375L14.3976 2.20782C14.4773 2.17735 14.557 2.15625 14.6413 2.14454C14.5781 2.15391 14.5171 2.16094 14.4538 2.17032C14.5359 2.16094 14.6179 2.16094 14.6999 2.17266C14.6366 2.16329 14.5757 2.15625 14.5124 2.14688C14.5945 2.1586 14.6718 2.17969 14.7491 2.21016L14.5804 2.13985C14.5991 2.14688 14.7726 2.22188 14.7702 2.24297C14.7679 2.25 14.6437 2.1375 14.6905 2.17969C14.707 2.19375 14.7234 2.20782 14.7374 2.22188C14.7632 2.24766 14.857 2.36016 14.7773 2.25704C14.6999 2.15625 14.7796 2.26641 14.7984 2.29922C14.8054 2.31094 14.8124 2.32266 14.8171 2.33438C14.8898 2.4586 14.9601 2.58282 15.0304 2.70469L15.6351 3.75235C15.7241 3.90704 15.8132 4.05 15.9327 4.18829C16.2351 4.53985 16.7062 4.72969 17.1656 4.73672C17.4609 4.74141 17.7585 4.73672 18.0538 4.73672H18.7452C18.8765 4.73672 19.0101 4.72969 19.139 4.7461C19.0757 4.73672 19.0148 4.72969 18.9515 4.72032C19.0335 4.73204 19.1132 4.75313 19.1905 4.7836L19.0218 4.71329C19.078 4.73672 19.1296 4.76719 19.1835 4.79766C19.2749 4.85157 19.071 4.69454 19.1249 4.75079C19.146 4.77188 19.1695 4.79063 19.1905 4.81172C19.2093 4.83047 19.2234 4.84922 19.2421 4.86797C19.3218 4.95235 19.1484 4.72032 19.2046 4.8211C19.2351 4.875 19.2655 4.92422 19.289 4.98282L19.2187 4.81407C19.2491 4.89141 19.2702 4.9711 19.282 5.05313C19.2726 4.98985 19.2655 4.92891 19.2562 4.86563C19.2913 5.16329 19.2655 5.47735 19.2655 5.77735C19.2655 6.12422 19.2632 6.46875 19.2655 6.81563C19.2679 7.4625 19.6148 8.00157 20.1679 8.32032C20.4984 8.51016 20.8288 8.7 21.1593 8.89219C21.321 8.98594 21.4827 9.07735 21.6421 9.1711C21.6773 9.19219 21.7148 9.21094 21.7499 9.23438C21.8718 9.31172 21.628 9.12422 21.7359 9.22266C21.7663 9.25078 21.7945 9.2836 21.8226 9.31407C21.8648 9.3586 21.7523 9.23438 21.7593 9.23438C21.764 9.23438 21.7968 9.29063 21.8015 9.3C21.8249 9.33985 21.846 9.38204 21.8624 9.42422L21.7921 9.25547C21.8226 9.33282 21.8437 9.41016 21.8554 9.49219C21.846 9.42891 21.839 9.36797 21.8296 9.30469C21.839 9.38672 21.839 9.46875 21.832 9.55079C21.8413 9.4875 21.8484 9.42657 21.8577 9.36329C21.846 9.44766 21.8249 9.52735 21.7945 9.60704L21.8648 9.43829C21.7405 9.73125 21.5484 10.0055 21.3913 10.2797C21.2226 10.5727 21.0491 10.8656 20.8851 11.1609C20.5921 11.6883 20.5921 12.3047 20.8827 12.8344C21.0609 13.1578 21.532 13.2891 21.8437 13.0875C22.1718 12.8766 22.2843 12.4711 22.0968 12.1266C22.078 12.0914 22.0616 12.0586 22.0452 12.0211L22.1155 12.1898C22.0827 12.1055 22.0593 12.0211 22.0476 11.9297C22.057 11.993 22.064 12.0539 22.0734 12.1172C22.0663 12.0398 22.0663 11.9648 22.0734 11.8875C22.064 11.9508 22.057 12.0117 22.0476 12.075C22.0593 11.9836 22.0827 11.8992 22.1155 11.8148L22.0452 11.9836C22.1812 11.6789 22.378 11.393 22.5421 11.1047C22.7015 10.8258 22.8655 10.5492 23.0226 10.2703C23.4702 9.46641 23.1984 8.45391 22.4015 7.9875C22.0851 7.80235 21.7663 7.62188 21.4499 7.43907C21.2648 7.3336 21.082 7.22579 20.8968 7.12032C20.8663 7.10157 20.8335 7.08516 20.803 7.06641C20.7749 7.05 20.6624 6.96797 20.7609 7.04532C20.864 7.125 20.7327 7.01016 20.7093 6.98672C20.6718 6.94922 20.6601 6.89063 20.7562 7.05235C20.7445 7.0336 20.7304 7.01485 20.7187 6.99844C20.6882 6.95157 20.6648 6.90235 20.6437 6.85079L20.714 7.01954C20.6859 6.94688 20.6648 6.87188 20.653 6.79454C20.6624 6.85782 20.6695 6.91875 20.6788 6.98204C20.639 6.67032 20.6695 6.33985 20.6695 6.02813C20.6695 5.69063 20.6718 5.35079 20.6695 5.01329C20.6648 4.59375 20.5171 4.22579 20.2523 3.90469C19.9616 3.55313 19.5163 3.37032 19.071 3.34219C18.764 3.3211 18.4499 3.33985 18.1406 3.33985H17.4445C17.3062 3.33985 17.1632 3.34688 17.0249 3.33047C17.0882 3.33985 17.1491 3.34688 17.2124 3.35625C17.1351 3.34454 17.0601 3.32344 16.9874 3.29532L17.1562 3.36563C17.1163 3.34922 17.0765 3.33047 17.0366 3.30704C17.0085 3.29063 16.8937 3.20625 16.9991 3.28829C17.0999 3.36563 16.9945 3.27891 16.971 3.25547C16.9687 3.25313 16.9265 3.21563 16.9265 3.20625C16.9288 3.225 17.0343 3.3586 16.9663 3.25313C16.9452 3.22032 16.9265 3.1875 16.9077 3.15235C16.8234 3.00704 16.7413 2.86172 16.657 2.71641C16.4554 2.36485 16.2515 2.01563 16.0499 1.66407C15.9023 1.4086 15.7148 1.19532 15.4687 1.02891C15.082 0.771099 14.5593 0.698442 14.114 0.829692C13.7437 0.939849 13.3968 1.18594 13.064 1.37813C12.8437 1.50469 12.6257 1.63125 12.4054 1.75782C12.2788 1.83047 12.1546 1.91016 12.021 1.9711L12.1898 1.90079C12.1054 1.9336 12.021 1.95704 11.9296 1.96875C11.9929 1.95938 12.0538 1.95235 12.1171 1.94297C12.0398 1.95 11.9648 1.95 11.8874 1.94297C11.9507 1.95235 12.0116 1.95938 12.0749 1.96875C11.9835 1.95704 11.8991 1.9336 11.8148 1.90079L11.9835 1.9711C11.6788 1.83516 11.3929 1.63829 11.1046 1.47188C10.8234 1.29844 10.5468 1.13438 10.2656 0.977349C9.46165 0.529692 8.4468 0.801567 7.98274 1.59844C7.79758 1.91485 7.61711 2.2336 7.4343 2.55C7.32883 2.73516 7.22102 2.91797 7.11555 3.10313C7.0968 3.1336 7.08039 3.16641 7.06164 3.19688C7.04524 3.225 6.96321 3.3375 7.04055 3.23907C7.12024 3.13594 7.00539 3.26719 6.98196 3.29063C6.94446 3.32813 6.88586 3.33985 7.04758 3.24375C7.02883 3.25547 7.01008 3.26954 6.99368 3.28125C6.9468 3.31172 6.89758 3.33516 6.84602 3.35625L7.01477 3.28594C6.94211 3.31407 6.86711 3.33516 6.78977 3.34688C6.85305 3.3375 6.91399 3.33047 6.97727 3.3211C6.66555 3.36094 6.33508 3.33047 6.02336 3.33047C5.68586 3.33047 5.34602 3.32813 5.00852 3.33047C4.58899 3.33516 4.22102 3.48282 3.89993 3.74766C3.54836 4.03829 3.36555 4.4836 3.33743 4.92891C3.31633 5.23594 3.33508 5.55 3.33508 5.85938V6.55547C3.33508 6.69375 3.34211 6.83672 3.32571 6.975C3.33508 6.91172 3.34211 6.85079 3.35149 6.7875C3.33977 6.86485 3.31868 6.93985 3.29055 7.0125L3.36086 6.84375C3.34446 6.8836 3.32571 6.92344 3.30227 6.96329C3.28586 6.99141 3.20149 7.10625 3.28352 7.00079C3.36086 6.9 3.27415 7.00547 3.25071 7.02891C3.24836 7.03125 3.21086 7.07344 3.20149 7.07344C3.22024 7.0711 3.35383 6.96563 3.24836 7.0336C3.21555 7.05469 3.18274 7.07344 3.14758 7.09219C3.00227 7.17657 2.85696 7.2586 2.71165 7.34297C2.36008 7.54454 2.01086 7.74844 1.6593 7.95C1.40383 8.09766 1.19055 8.28516 1.02415 8.53125C0.766333 8.91797 0.693677 9.44063 0.824927 9.88594C0.935083 10.2563 1.18118 10.6031 1.37336 10.9359C1.49993 11.1563 1.62649 11.3742 1.75305 11.5945C1.82571 11.7211 1.9054 11.8453 1.96633 11.9789L1.89602 11.8102C1.92883 11.8945 1.95227 11.9789 1.96399 12.0703C1.95461 12.007 1.94758 11.9461 1.93821 11.8828C1.94524 11.9602 1.94524 12.0352 1.93821 12.1125C1.94758 12.0492 1.95461 11.9883 1.96399 11.925C1.95227 12.0164 1.92883 12.1008 1.89602 12.1852L1.96633 12.0164C1.8304 12.3211 1.63352 12.607 1.46711 12.8953C1.29836 13.1766 1.1343 13.4531 0.97727 13.7344C0.529614 14.5383 0.801489 15.5531 1.59836 16.0172C1.91477 16.2023 2.23352 16.3828 2.54993 16.5656C2.73508 16.6711 2.9179 16.7789 3.10305 16.8844C3.13352 16.9031 3.16633 16.9195 3.1968 16.9383C3.22493 16.9547 3.33743 17.0367 3.23899 16.9594C3.13586 16.8797 3.26711 16.9945 3.29055 17.018C3.32805 17.0555 3.33977 17.1141 3.24368 16.9523C3.25539 16.9711 3.26946 16.9898 3.28118 17.0063C3.31165 17.0531 3.33508 17.1023 3.35618 17.1539L3.28586 16.9852C3.31399 17.0578 3.33508 17.1328 3.3468 17.2102C3.33743 17.1469 3.33039 17.0859 3.32102 17.0227C3.36086 17.3344 3.3304 17.6648 3.3304 17.9766C3.3304 18.3141 3.32805 18.6539 3.3304 18.9914C3.33508 19.4109 3.48274 19.7789 3.74758 20.1C4.03821 20.4516 4.48352 20.6344 4.92883 20.6625C5.23586 20.6836 5.54993 20.6648 5.8593 20.6648H6.5554C6.69368 20.6648 6.83665 20.6578 6.97493 20.6742C6.91165 20.6648 6.85071 20.6578 6.78743 20.6484C6.86477 20.6602 6.93977 20.6813 7.01243 20.7094L6.84368 20.6391C6.88352 20.6555 6.92336 20.6742 6.96321 20.6977C6.99133 20.7141 7.10618 20.7984 7.00071 20.7164C6.89993 20.6391 7.00539 20.7258 7.02883 20.7492C7.03118 20.7516 7.07336 20.7891 7.07336 20.7984C7.07102 20.7797 6.96555 20.6461 7.03352 20.7516C7.05461 20.7844 7.07336 20.8172 7.09211 20.8523C7.17649 20.9977 7.25852 21.143 7.34289 21.2883C7.54446 21.6398 7.74836 21.9891 7.94993 22.3406C8.09758 22.5961 8.28508 22.8094 8.53118 22.9758C8.9179 23.2336 9.44055 23.3063 9.88586 23.175C10.2562 23.0648 10.6031 22.8188 10.9359 22.6266C11.1562 22.5 11.3741 22.3734 11.5945 22.2469C11.721 22.1742 11.8452 22.0945 11.9788 22.0336L11.8101 22.1039C11.8945 22.0711 11.9788 22.0477 12.0702 22.0359C12.007 22.0453 11.946 22.0523 11.8827 22.0617C11.9601 22.0547 12.0351 22.0547 12.1124 22.0617C12.0491 22.0523 11.9882 22.0453 11.9249 22.0359C12.0163 22.0477 12.1007 22.0711 12.1851 22.1039L12.0163 22.0336C12.321 22.1695 12.607 22.3664 12.8952 22.5328C13.1741 22.6922 13.4507 22.8586 13.7296 23.0133C14.5335 23.4609 15.5484 23.1891 16.0124 22.3922C16.1976 22.0758 16.378 21.757 16.5609 21.4406C16.6663 21.2555 16.7741 21.0727 16.8796 20.8875C16.8984 20.857 16.9148 20.8242 16.9335 20.7938C16.9499 20.7656 17.032 20.6531 16.9546 20.7516C16.8749 20.8547 16.9898 20.7234 17.0132 20.7C17.0507 20.6625 17.1093 20.6508 16.9476 20.7469C16.9663 20.7352 16.9851 20.7211 17.0015 20.7094C17.0484 20.6789 17.0976 20.6555 17.1491 20.6344L16.9804 20.7047C17.053 20.6766 17.128 20.6555 17.2054 20.6438C17.1421 20.6531 17.0812 20.6602 17.0179 20.6695C17.3296 20.6297 17.6601 20.6602 17.9718 20.6602C18.3093 20.6602 18.6491 20.6625 18.9866 20.6602C19.4062 20.6555 19.7741 20.5078 20.0952 20.243C20.4468 19.9523 20.6296 19.507 20.6577 19.0617C20.6788 18.7547 20.6601 18.4406 20.6601 18.1313V17.4352C20.6601 17.2969 20.653 17.1539 20.6695 17.0156C20.6601 17.0789 20.653 17.1398 20.6437 17.2031C20.6554 17.1258 20.6765 17.0508 20.7046 16.9781L20.6343 17.1469C20.6507 17.107 20.6695 17.0672 20.6929 17.0273C20.7093 17.0016 20.7937 16.8844 20.7116 16.9898C20.6343 17.0906 20.721 16.9852 20.7445 16.9617C20.7538 16.9547 20.7937 16.9242 20.7937 16.9172C20.7913 16.9289 20.6507 17.0156 20.7327 16.9664C20.7702 16.943 20.8077 16.9195 20.8476 16.8984C20.9905 16.8164 21.1312 16.7344 21.2741 16.6523C21.6257 16.4508 21.9773 16.2469 22.3265 16.0453C22.5726 15.9023 22.7741 15.7266 22.9429 15.4969C23.2218 15.1172 23.2921 14.6016 23.182 14.1492C23.0929 13.7789 22.8327 13.4203 22.6452 13.0945L22.0827 12.1172C21.8999 11.7984 21.4382 11.6602 21.1218 11.8641C20.8124 12.0797 20.6859 12.4922 20.8827 12.8344Z"></path>
<path fill="#757575" d="M9.04228 14.1755H8.32599L6.17082 10.9262V14.1755H5.45453V9.81812H6.17082L8.32599 13.0611V9.81812H9.04228V14.1755Z"></path>
<path fill="#757575" d="M10.4898 10.4004V11.6775H11.9977V12.2597H10.4898V13.5933H12.1862V14.1755H9.77347V9.81812H12.1862V10.4004H10.4898Z"></path>
<path fill="#757575" d="M18.5454 9.82438L17.2511 14.1755H16.4405L15.5232 10.8824L14.5493 14.1755L13.745 14.1818L12.5072 9.82438H13.2675L14.1723 13.3679L15.1525 9.82438H15.9567L16.8678 13.3491L17.7789 9.82438H18.5454Z"></path>
</g>
<defs>
<clipPath id="clip0_12366_4915">
<rect fill="white" height="24" width="24"></rect>
</clipPath>
</defs>
</svg>
