<svg xmlns="http://www.w3.org/2000/svg" fill="none" viewBox="0 0 24 24" height="24" width="24">
<path fill="#757575" d="M15.2549 10.5798H8.74444C8.30237 10.5798 7.94067 10.2038 7.94067 9.74422V4.77246C7.94067 3.35195 9.06594 2.18213 10.4323 2.18213H13.567C14.9334 2.18213 16.0587 3.35195 16.0587 4.77246V9.74422C16.0587 10.2038 15.697 10.5798 15.2549 10.5798ZM9.50801 8.90863H14.4914V4.77246C14.4914 4.22932 14.0895 3.81153 13.567 3.81153H10.4323C9.9099 3.81153 9.50801 4.22932 9.50801 4.77246V8.90863Z"></path>
<path fill="#757575" d="M17.5455 21.8183H6.45356C5.2881 21.8183 4.36377 20.8156 4.36377 19.6457V11.1227C4.36377 9.91112 5.32829 8.9502 6.45356 8.9502H17.5455C18.711 8.9502 19.6353 9.9529 19.6353 11.1227V19.6457C19.6755 20.8156 18.711 21.8183 17.5455 21.8183ZM5.93111 16.4705V19.6457C5.93111 19.9382 6.17224 20.1889 6.45356 20.1889H17.5455C17.8268 20.1889 18.0679 19.9382 18.0679 19.6457V17.2225C17.5857 17.5568 17.1034 17.8075 16.6614 17.8075C16.38 17.891 16.0585 17.891 15.737 17.891C15.6165 17.891 15.4557 17.891 15.3351 17.891C15.2146 17.891 15.0538 17.8492 14.9333 17.8492C13.8482 17.6821 12.8033 17.2225 11.7986 16.763C10.5528 16.2198 9.38729 15.6767 8.22184 15.6767C7.45826 15.6767 6.73487 15.9274 6.05167 16.4287C5.9713 16.4287 5.93111 16.4705 5.93111 16.4705ZM15.4155 16.2198C15.7772 16.2616 16.0987 16.2198 16.38 16.178C16.4202 16.178 16.5006 16.178 16.5408 16.178C16.8221 16.178 17.7866 15.5514 18.0679 14.5904V11.1227C18.0679 10.8303 17.8268 10.5796 17.5455 10.5796H6.45356C6.17224 10.5796 5.93111 10.8303 5.93111 11.1227V14.5904C6.6545 14.2144 7.41807 14.0473 8.22184 14.0473C9.7088 14.0473 11.0752 14.674 12.4014 15.2589C13.3659 15.6767 14.2903 16.0945 15.1342 16.2198C15.2548 16.2198 15.3351 16.2198 15.4155 16.2198Z"></path>
<path fill="#757575" d="M11.9997 7.4464C11.4371 7.4464 10.995 6.98682 10.995 6.40191C10.995 5.817 11.4371 5.35742 11.9997 5.35742C12.5623 5.35742 13.0044 5.817 13.0044 6.40191C13.0044 6.98682 12.5623 7.4464 11.9997 7.4464ZM11.9997 5.817C11.6782 5.817 11.4371 6.06767 11.4371 6.40191C11.4371 6.73615 11.6782 6.98682 11.9997 6.98682C12.3212 6.98682 12.5623 6.73615 12.5623 6.40191C12.5623 6.10945 12.3212 5.817 11.9997 5.817Z"></path>
</svg>
