<svg xmlns="http://www.w3.org/2000/svg" fill="none" viewBox="0 0 24 24" height="24" width="24">
<path fill="#757575" d="M18.75 10.5V21C18.75 22.243 17.743 23.25 16.5 23.25H7.5C6.257 23.25 5.25 22.243 5.25 21V10.5C5.25 8.981 6.481 7.75 8 7.75H16C17.519 7.75 18.75 8.981 18.75 10.5ZM17.25 10.5C17.25 9.81 16.69 9.25 16 9.25H8C7.31 9.25 6.75 9.81 6.75 10.5V21C6.75 21.414 7.086 21.75 7.5 21.75H16.5C16.914 21.75 17.25 21.414 17.25 21V10.5Z" clip-rule="evenodd" fill-rule="evenodd"></path>
<path fill="#757575" d="M15.75 13V18C15.75 18.464 15.566 18.909 15.237 19.237C14.909 19.566 14.464 19.75 14 19.75H6C5.586 19.75 5.25 19.414 5.25 19V12C5.25 11.586 5.586 11.25 6 11.25H14C14.464 11.25 14.909 11.434 15.237 11.763C15.566 12.091 15.75 12.536 15.75 13ZM14.25 13C14.25 12.934 14.224 12.87 14.177 12.823C14.13 12.776 14.066 12.75 14 12.75H6.75V18.25H14C14.066 18.25 14.13 18.224 14.177 18.177C14.224 18.13 14.25 18.066 14.25 18V13ZM15.75 6.5V8.5C15.75 8.914 15.414 9.25 15 9.25H9C8.586 9.25 8.25 8.914 8.25 8.5V6.5C8.25 5.533 9.034 4.75 10 4.75H14C14.966 4.75 15.75 5.533 15.75 6.5ZM14.25 6.5C14.25 6.362 14.138 6.25 14 6.25H10C9.862 6.25 9.75 6.362 9.75 6.5V7.75H14.25V6.5Z" clip-rule="evenodd" fill-rule="evenodd"></path>
<path fill="#757575" d="M12.75 5.5C12.75 5.914 12.414 6.25 12 6.25C11.586 6.25 11.25 5.914 11.25 5.5V2.5C11.25 2.086 11.586 1.75 12 1.75C12.414 1.75 12.75 2.086 12.75 2.5V5.5Z" clip-rule="evenodd" fill-rule="evenodd"></path>
<path fill="#757575" d="M9.61307 2.45386C9.25907 2.24086 9.14407 1.77986 9.35707 1.42486C9.57107 1.06986 10.0321 0.955863 10.3871 1.16886C11.4641 1.81686 12.5401 1.80586 13.6171 1.16686C13.6511 1.14686 13.6861 1.12986 13.7221 1.11486C14.9141 0.639863 16.1061 0.607863 17.2981 1.12286C17.6771 1.28786 17.8531 1.72886 17.6881 2.10886C17.5241 2.48886 17.0821 2.66386 16.7021 2.49986C15.9111 2.15786 15.1201 2.18486 14.3321 2.48686C12.7591 3.39986 11.1861 3.40086 9.61307 2.45386Z" clip-rule="evenodd" fill-rule="evenodd"></path>
</svg>
